<svg width="40" height="40" viewBox="0 0 40 40" fill="none" xmlns="http://www.w3.org/2000/svg">
<circle cx="20" cy="20" r="20" fill="#EEEEEE"/>
<path d="M14.75 27.875C19.0992 27.875 22.625 24.3492 22.625 20C22.625 15.6508 19.0992 12.125 14.75 12.125C10.4008 12.125 6.875 15.6508 6.875 20C6.875 24.3492 10.4008 27.875 14.75 27.875Z" fill="#E80B26"/>
<path d="M25.25 27.875C29.5992 27.875 33.125 24.3492 33.125 20C33.125 15.6508 29.5992 12.125 25.25 12.125C20.9008 12.125 17.375 15.6508 17.375 20C17.375 24.3492 20.9008 27.875 25.25 27.875Z" fill="#F59D31"/>
<path d="M20 25.8698C21.6111 24.4278 22.625 22.3323 22.625 20C22.625 17.6677 21.6111 15.5722 20 14.1303C18.3889 15.5722 17.375 17.6677 17.375 20C17.375 22.3323 18.3889 24.4278 20 25.8698Z" fill="#FC6020"/>
</svg>
