<svg width="40" height="40" viewBox="0 0 40 40" fill="none" xmlns="http://www.w3.org/2000/svg">
<circle cx="20" cy="20" r="20" fill="#E6F5FF"/>
<path d="M26.6364 15.2129C26.8702 13.6889 26.6364 12.6728 25.8182 11.735C24.9222 10.6799 23.286 10.25 21.1822 10.25H15.1436C14.7151 10.25 14.3645 10.5626 14.2865 10.9925L11.7542 27.0145C11.7153 27.3271 11.949 27.6007 12.2607 27.6007H16.0007L15.728 29.2419C15.6891 29.5155 15.8839 29.75 16.1955 29.75H19.3512C19.7407 29.75 20.0524 29.4765 20.0914 29.1247L20.7537 24.9825C20.7926 24.6307 21.1432 24.3572 21.4939 24.3572H21.9613C25.0001 24.3572 27.4156 23.1067 28.1168 19.5115C28.3895 18.0265 28.2727 16.737 27.4935 15.8773C27.2597 15.6037 26.987 15.4083 26.6364 15.2129Z" fill="#009CDE"/>
<path d="M26.6364 15.2129C26.8701 13.6889 26.6364 12.6728 25.8182 11.735C24.9222 10.6799 23.286 10.25 21.1822 10.25H15.1436C14.7151 10.25 14.3645 10.5626 14.2865 10.9925L11.7542 27.0145C11.7153 27.3271 11.949 27.6007 12.2607 27.6007H16.0007L16.8967 21.8171C16.9747 21.3873 17.3253 21.0747 17.7538 21.0747H19.546C23.0522 21.0747 25.7793 19.6678 26.5585 15.5256C26.5974 15.4474 26.5974 15.3302 26.6364 15.2129Z" fill="#012169"/>
<path d="M17.9486 15.252C17.9876 14.9785 18.3382 14.6268 18.6889 14.6268H23.4418C23.9872 14.6268 24.5326 14.6658 25.0001 14.744C25.4287 14.8221 26.2078 15.0175 26.5974 15.252C26.8312 13.728 26.5974 12.7119 25.7793 11.774C24.9222 10.6799 23.286 10.25 21.1822 10.25H15.1436C14.7151 10.25 14.3645 10.5626 14.2865 10.9925L11.7542 27.0145C11.7153 27.3271 11.949 27.6007 12.2607 27.6007H16.0007L17.9486 15.252Z" fill="#003087"/>
</svg>
