<svg width="26" height="23" viewBox="0 0 26 23" fill="none" xmlns="http://www.w3.org/2000/svg">
<path d="M22.764 10.9594H19.7455C18.9829 10.9562 18.2506 11.2166 17.7123 11.6825L13.0798 15.6775V7.04573C13.0765 6.58861 12.7541 6.17823 12.2631 6.00607C11.772 5.83391 11.2091 5.9339 10.8369 6.25939L5.77468 10.625C5.52876 10.8404 5.19239 10.961 4.84189 10.9594H1.83391C1.39978 10.9594 1.04785 11.2629 1.04785 11.6373C1.04785 12.0117 1.39978 12.3152 1.83391 12.3152H4.84189C5.62731 12.3286 6.38485 12.0641 6.93804 11.583L11.4867 7.59708V16.2288C11.4856 16.6846 11.8047 17.0955 12.2937 17.2682C12.4522 17.3284 12.6236 17.3592 12.7968 17.3586C13.1439 17.3588 13.4764 17.2382 13.7191 17.0242L18.8232 12.6405C19.069 12.4315 19.4004 12.3146 19.7455 12.3152H22.764C23.1981 12.3152 23.5501 12.0117 23.5501 11.6373C23.5501 11.2629 23.1981 10.9594 22.764 10.9594Z" fill="#707070"/>
</svg>
