<svg width="21" height="17" viewBox="0 0 21 17" fill="none" xmlns="http://www.w3.org/2000/svg">
<path d="M20.3977 7.62232L20.3966 7.62115L14.1202 1.17356C13.65 0.69055 12.8895 0.692347 12.4215 1.17778C11.9535 1.66314 11.9553 2.4482 12.4255 2.93127L16.6395 7.26008H1.45117C0.787765 7.26008 0.25 7.81519 0.25 8.5C0.25 9.18481 0.787765 9.73992 1.45117 9.73992H16.6394L12.4256 14.0687C11.9554 14.5518 11.9536 15.3369 12.4215 15.8222C12.8896 16.3077 13.6502 16.3094 14.1203 15.8264L20.3967 9.37885L20.3977 9.37768C20.8682 8.89299 20.8667 8.1054 20.3977 7.62232Z" fill="#FF5733"/>
</svg>
