<svg width="15" height="16" viewBox="0 0 15 16" fill="none" xmlns="http://www.w3.org/2000/svg">
<path d="M13.961 8.00043L8.20396 13.7574C7.4048 14.536 6.33112 14.9686 5.21539 14.9613C4.09967 14.954 3.0317 14.5076 2.24275 13.7186C1.45379 12.9297 1.00735 11.8617 1.00009 10.746C0.99283 9.63027 1.42534 8.55658 2.20396 7.75743L8.13296 1.82843C8.66339 1.29799 9.38281 1 10.133 1C10.8831 1 11.6025 1.29799 12.133 1.82843C12.6634 2.35886 12.9614 3.07828 12.9614 3.82843C12.9614 4.57857 12.6634 5.29799 12.133 5.82843L6.37496 11.5864C6.10974 11.8516 5.75003 12.0006 5.37496 12.0006C4.99988 12.0006 4.64017 11.8516 4.37496 11.5864C4.10974 11.3212 3.96074 10.9615 3.96074 10.5864C3.96074 10.2114 4.10974 9.85164 4.37496 9.58643L9.96096 4.00043" fill="#FF5733" fill-opacity="0.2"/>
<path d="M13.961 8.00043L8.20396 13.7574C7.4048 14.536 6.33112 14.9686 5.21539 14.9613C4.09967 14.954 3.0317 14.5076 2.24275 13.7186C1.45379 12.9297 1.00735 11.8617 1.00009 10.746C0.99283 9.63027 1.42534 8.55658 2.20396 7.75743L8.13296 1.82843C8.66339 1.29799 9.38281 1 10.133 1C10.8831 1 11.6025 1.29799 12.133 1.82843C12.6634 2.35886 12.9614 3.07828 12.9614 3.82843C12.9614 4.57857 12.6634 5.29799 12.133 5.82843L6.37496 11.5864C6.10974 11.8516 5.75003 12.0006 5.37496 12.0006C4.99988 12.0006 4.64017 11.8516 4.37496 11.5864C4.10974 11.3212 3.96074 10.9615 3.96074 10.5864C3.96074 10.2114 4.10974 9.85164 4.37496 9.58643L9.96096 4.00043" stroke="#FF5733"/>
</svg>
