<svg width="24" height="24" viewBox="0 0 24 24" fill="none" xmlns="http://www.w3.org/2000/svg">
<path fill-rule="evenodd" clip-rule="evenodd" d="M11.9777 2.57112C11.2611 2.55818 10.5489 2.68668 9.88202 2.94928C9.21511 3.21188 8.60653 3.60341 8.09111 4.10148C7.57569 4.59954 7.16355 5.19436 6.87827 5.85189C6.59299 6.50942 6.44018 7.21675 6.42857 7.9334V15.4283C6.42857 15.8829 6.24796 16.319 5.92647 16.6404C5.60498 16.9619 5.16894 17.1425 4.71429 17.1425H2.57143C1.88944 17.1425 1.23539 16.8716 0.753154 16.3894C0.270918 15.9072 0 15.2531 0 14.5711L0 11.1425C0 10.4606 0.270918 9.80651 0.753154 9.32427C1.23539 8.84204 1.88944 8.57112 2.57143 8.57112H3.85714V7.90255C3.87278 6.84894 4.09583 5.80872 4.51353 4.84132C4.93123 3.87392 5.53542 2.99828 6.29158 2.26441C7.04774 1.53054 7.94105 0.952814 8.92052 0.56423C9.89998 0.175645 10.9464 -0.0161869 12 -0.00030988C13.0536 -0.0161869 14.1 0.175645 15.0795 0.56423C16.0589 0.952814 16.9523 1.53054 17.7084 2.26441C18.4646 2.99828 19.0688 3.87392 19.4865 4.84132C19.9042 5.80872 20.1272 6.84894 20.1429 7.90255V8.57112H21.4286C22.1106 8.57112 22.7646 8.84204 23.2468 9.32427C23.7291 9.80651 24 10.4606 24 11.1425V14.5711C24 15.2531 23.7291 15.9072 23.2468 16.3894C22.7646 16.8716 22.1106 17.1425 21.4286 17.1425H20.1429V17.9997C20.1431 19.1581 19.7168 20.2761 18.9452 21.1403C18.1737 22.0044 17.1111 22.5542 15.96 22.6848C15.7365 23.0839 15.4105 23.4162 15.0158 23.6473C14.621 23.8784 14.1717 24.0001 13.7143 23.9997H11.1429C10.4609 23.9997 9.80682 23.7288 9.32458 23.2465C8.84235 22.7643 8.57143 22.1102 8.57143 21.4283C8.57143 20.7463 8.84235 20.0922 9.32458 19.61C9.80682 19.1278 10.4609 18.8568 11.1429 18.8568H13.7143C14.6434 18.8568 15.4577 19.3488 15.9086 20.0877C16.3811 19.9791 16.8028 19.7135 17.1048 19.3342C17.4068 18.955 17.5713 18.4845 17.5714 17.9997V7.93169C17.5597 7.21135 17.4052 6.50048 17.1171 5.84018C16.8289 5.17988 16.4127 4.58325 15.8926 4.08478C15.3724 3.58631 14.7586 3.19588 14.0867 2.93607C13.4147 2.67626 12.6979 2.55222 11.9777 2.57112Z" fill="#FF5733"/>
</svg>
