<svg width="25" height="25" viewBox="0 0 25 25" fill="none" xmlns="http://www.w3.org/2000/svg">
<path d="M20.7917 9.33331C20.0938 8.56248 19.0417 8.11456 17.5834 7.95831V7.16664C17.5834 5.73956 16.9792 4.36456 15.9167 3.40623C14.8438 2.42706 13.448 1.96873 12.0001 2.10414C9.51048 2.34373 7.41673 4.74998 7.41673 7.35414V7.95831C5.95839 8.11456 4.90631 8.56248 4.20839 9.33331C3.19798 10.4583 3.22923 11.9583 3.34381 13L4.07298 18.8021C4.29173 20.8333 5.11464 22.9166 9.59381 22.9166H15.4063C19.8855 22.9166 20.7084 20.8333 20.9271 18.8125L21.6563 12.9896C21.7709 11.9583 21.7917 10.4583 20.7917 9.33331ZM12.1459 3.55206C13.1876 3.45831 14.1771 3.78123 14.948 4.47914C15.7084 5.16664 16.1355 6.14581 16.1355 7.16664V7.89581H8.86464V7.35414C8.86464 5.49998 10.3959 3.71873 12.1459 3.55206ZM8.77089 13.6979H8.76048C8.18756 13.6979 7.71881 13.2291 7.71881 12.6562C7.71881 12.0833 8.18756 11.6146 8.76048 11.6146C9.34381 11.6146 9.81256 12.0833 9.81256 12.6562C9.81256 13.2291 9.34381 13.6979 8.77089 13.6979ZM16.0626 13.6979H16.0521C15.4792 13.6979 15.0105 13.2291 15.0105 12.6562C15.0105 12.0833 15.4792 11.6146 16.0521 11.6146C16.6355 11.6146 17.1042 12.0833 17.1042 12.6562C17.1042 13.2291 16.6355 13.6979 16.0626 13.6979Z" fill="#FF5733"/>
</svg>
