<svg width="27" height="26" viewBox="0 0 27 26" fill="none" xmlns="http://www.w3.org/2000/svg">
<path fill-rule="evenodd" clip-rule="evenodd" d="M13.1148 2.90979C15.4551 2.68275 17.43 4.52387 17.43 6.8225V7.59795H9.56998V7.02162C9.56998 5.0225 11.203 3.08822 13.1119 2.91006L13.1148 2.90979ZM7.99798 7.66288V7.02162C7.99798 4.3052 10.158 1.60778 12.9644 1.345C16.2408 1.02797 19.002 3.60912 19.002 6.8225V7.66288C20.6317 7.83625 21.7982 8.35789 22.5405 9.2404C23.461 10.3347 23.5471 11.7729 23.3988 13.113L23.3976 13.1241L23.3975 13.1241L22.6124 19.4052C22.4965 20.4808 22.2252 21.6589 21.2653 22.5358C20.3104 23.4082 18.831 23.8419 16.644 23.8419H10.356C8.16899 23.8419 6.68962 23.4082 5.73474 22.5358C4.77483 21.6589 4.5035 20.4809 4.38764 19.4053L3.60248 13.1241L3.6011 13.113L3.60118 13.113C3.45289 11.7729 3.53905 10.3347 4.45948 9.2404C5.20177 8.3579 6.36832 7.83626 7.99798 7.66288ZM5.94834 19.2171L5.16305 12.9347C5.02939 11.7206 5.16887 10.8392 5.66251 10.2523C6.14939 9.67343 7.1628 9.16995 9.30801 9.16995H17.692C19.8372 9.16995 20.8506 9.67343 21.3375 10.2523C21.8312 10.8392 21.9706 11.7206 21.837 12.9348L21.0517 19.2171L21.0516 19.2171L21.0501 19.2309C20.9454 20.2075 20.7285 20.897 20.205 21.3753C19.6743 21.8601 18.67 22.2699 16.644 22.2699H10.356C8.33007 22.2699 7.32569 21.8601 6.79503 21.3753C6.27148 20.897 6.05458 20.2075 5.94994 19.2309L5.95006 19.2308L5.94834 19.2171ZM16.1154 12.5759C16.1154 11.9971 16.5846 11.5279 17.1634 11.5279H17.1728C17.7516 11.5279 18.2208 11.9971 18.2208 12.5759C18.2208 13.1547 17.7516 13.6239 17.1728 13.6239H17.1634C16.5846 13.6239 16.1154 13.1547 16.1154 12.5759ZM9.82622 11.5279C9.24743 11.5279 8.77822 11.9971 8.77822 12.5759C8.77822 13.1547 9.24743 13.6239 9.82622 13.6239H9.83563C10.4144 13.6239 10.8836 13.1547 10.8836 12.5759C10.8836 11.9971 10.4144 11.5279 9.83563 11.5279H9.82622Z" fill="#AAAAAA"/>
</svg>
