<svg width="21" height="20" viewBox="0 0 21 20" fill="none" xmlns="http://www.w3.org/2000/svg">
<path d="M10.6251 1.66675C15.2276 1.66675 18.9584 5.39758 18.9584 10.0001C18.9584 14.6026 15.2276 18.3334 10.6251 18.3334C9.29508 18.3352 7.98411 18.0174 6.80259 17.4067L3.61426 18.2959C3.43637 18.3456 3.24849 18.347 3.06986 18.3001C2.89123 18.2533 2.72827 18.1597 2.59768 18.0292C2.46709 17.8986 2.37357 17.7356 2.32669 17.557C2.27982 17.3783 2.28128 17.1905 2.33092 17.0126L3.22092 13.8267C2.60872 12.6442 2.29002 11.3317 2.29176 10.0001C2.29176 5.39758 6.02259 1.66675 10.6251 1.66675ZM10.6251 2.91675C8.74647 2.91675 6.9448 3.66303 5.61642 4.99141C4.28803 6.31979 3.54176 8.12146 3.54176 10.0001C3.54176 11.2251 3.85259 12.4026 4.43592 13.4476L4.56092 13.6726L3.63426 16.9926L6.95676 16.0659L7.18176 16.1909C8.12708 16.7165 9.1802 17.0186 10.2604 17.0741C11.3406 17.1296 12.4191 16.9369 13.4133 16.511C14.4075 16.085 15.2909 15.4371 15.9959 14.6168C16.7008 13.7964 17.2086 12.8256 17.4801 11.7786C17.7517 10.7317 17.7799 9.63645 17.5626 8.57691C17.3453 7.51736 16.8882 6.52165 16.2265 5.66614C15.5647 4.81062 14.7158 4.11801 13.7448 3.64143C12.7739 3.16485 11.7067 2.91696 10.6251 2.91675ZM10.6251 12.9167C10.8461 12.9167 11.0581 13.0045 11.2143 13.1608C11.3706 13.3171 11.4584 13.5291 11.4584 13.7501C11.4584 13.9711 11.3706 14.1831 11.2143 14.3393C11.0581 14.4956 10.8461 14.5834 10.6251 14.5834C10.4041 14.5834 10.1921 14.4956 10.0358 14.3393C9.87955 14.1831 9.79176 13.9711 9.79176 13.7501C9.79176 13.5291 9.87955 13.3171 10.0358 13.1608C10.1921 13.0045 10.4041 12.9167 10.6251 12.9167ZM10.6251 5.62508C11.2329 5.62508 11.8158 5.86652 12.2455 6.29629C12.6753 6.72607 12.9168 7.30896 12.9168 7.91675C12.9168 8.75841 12.6693 9.22841 12.0409 9.88258L11.9001 10.0251C11.3818 10.5434 11.2501 10.7634 11.2501 11.2501C11.2501 11.4158 11.1842 11.5748 11.067 11.692C10.9498 11.8092 10.7908 11.8751 10.6251 11.8751C10.4593 11.8751 10.3004 11.8092 10.1831 11.692C10.0659 11.5748 10.0001 11.4158 10.0001 11.2501C10.0001 10.4084 10.2476 9.93841 10.8759 9.28425L11.0168 9.14175C11.5351 8.62341 11.6668 8.40341 11.6668 7.91675C11.6659 7.65031 11.563 7.39433 11.3792 7.20146C11.1953 7.00859 10.9446 6.89348 10.6785 6.87982C10.4124 6.86616 10.1512 6.95498 9.94861 7.12801C9.746 7.30104 9.6174 7.54513 9.58926 7.81008L9.58342 7.91675C9.58342 8.08251 9.51757 8.24148 9.40036 8.35869C9.28315 8.4759 9.12418 8.54175 8.95842 8.54175C8.79266 8.54175 8.63369 8.4759 8.51648 8.35869C8.39927 8.24148 8.33342 8.08251 8.33342 7.91675C8.33342 7.30896 8.57486 6.72607 9.00464 6.29629C9.43441 5.86652 10.0173 5.62508 10.6251 5.62508Z" fill="#FF5733"/>
</svg>
