<svg width="25" height="24" viewBox="0 0 25 24" fill="none" xmlns="http://www.w3.org/2000/svg">
<path d="M12.5 22.5C18.299 22.5 23 17.799 23 12C23 6.20101 18.299 1.5 12.5 1.5C6.70101 1.5 2 6.20101 2 12C2 17.799 6.70101 22.5 12.5 22.5Z" fill="url(#paint0_linear_103_1116)"/>
<path d="M16.4103 15.2112L16.8767 12.2476H13.9589V10.3253C13.9589 9.51428 14.3658 8.72332 15.6726 8.72332H17V6.20024C17 6.20024 15.7959 6 14.6452 6C12.2411 6 10.6713 7.41971 10.6713 9.9888V12.2476H8V15.2112H10.6713V22.3759C11.2075 22.458 11.7562 22.5 12.3151 22.5C12.874 22.5 13.4226 22.458 13.9589 22.3759V15.2112H16.4103Z" fill="white"/>
<defs>
<linearGradient id="paint0_linear_103_1116" x1="12.5" y1="1.5" x2="12.5" y2="22.4378" gradientUnits="userSpaceOnUse">
<stop stop-color="#18ACFE"/>
<stop offset="1" stop-color="#0163E0"/>
</linearGradient>
</defs>
</svg>
