<svg width="24" height="24" viewBox="0 0 24 24" fill="none" xmlns="http://www.w3.org/2000/svg">
<path fill-rule="evenodd" clip-rule="evenodd" d="M12.3404 18.7105C11.726 18.7105 11.2284 18.2041 11.2284 17.5789C11.2284 16.9537 11.726 16.4474 12.3404 16.4474C12.9548 16.4474 13.4524 16.9537 13.4524 17.5789C13.4524 18.2041 12.9548 18.7105 12.3404 18.7105ZM20.1242 17.0132H14.4857C14.2361 16.014 13.352 15.3158 12.3401 15.3158C11.3282 15.3158 10.4441 16.014 10.1945 17.0132H4.55601C4.24965 17.0132 4 17.2672 4 17.5789C4 17.8907 4.24965 18.1447 4.55601 18.1447H10.1945C10.4441 19.1439 11.3282 19.8421 12.3401 19.8421C13.352 19.8421 14.2361 19.1439 14.4857 18.1447H20.1242C20.4306 18.1447 20.6802 17.8907 20.6802 17.5789C20.6802 17.2672 20.4306 17.0132 20.1242 17.0132ZM17.9005 13.0526C17.2861 13.0526 16.7885 12.5462 16.7885 11.9211C16.7885 11.2959 17.2861 10.7895 17.9005 10.7895C18.5149 10.7895 19.0125 11.2959 19.0125 11.9211C19.0125 12.5462 18.5149 13.0526 17.9005 13.0526ZM20.1242 11.3553H20.0458C19.7962 10.3561 18.9121 9.6579 17.9002 9.6579C16.8882 9.6579 16.0042 10.3561 15.7545 11.3553H4.55601C4.24965 11.3553 4 11.6093 4 11.9211C4 12.2328 4.24965 12.4868 4.55601 12.4868H15.7545C16.0042 13.486 16.8882 14.1842 17.9002 14.1842C18.9121 14.1842 19.7962 13.486 20.0458 12.4868H20.1242C20.4306 12.4868 20.6802 12.2328 20.6802 11.9211C20.6802 11.6093 20.4306 11.3553 20.1242 11.3553ZM6.78012 5.13158C7.3945 5.13158 7.89213 5.63796 7.89213 6.26316C7.89213 6.88836 7.3945 7.39474 6.78012 7.39474C6.16573 7.39474 5.6681 6.88836 5.6681 6.26316C5.6681 5.63796 6.16573 5.13158 6.78012 5.13158ZM4.55601 6.82895H4.6344C4.88405 7.82813 5.7681 8.52632 6.78004 8.52632C7.79197 8.52632 8.67602 7.82813 8.92567 6.82895H20.1242C20.4306 6.82895 20.6802 6.57491 20.6802 6.26316C20.6802 5.95141 20.4306 5.69737 20.1242 5.69737H8.92567C8.67602 4.69818 7.79197 4 6.78004 4C5.7681 4 4.88405 4.69818 4.6344 5.69737H4.55601C4.24965 5.69737 4 5.95141 4 6.26316C4 6.57491 4.24965 6.82895 4.55601 6.82895Z" fill="#333336"/>
</svg>
