<svg width="26" height="26" viewBox="0 0 26 26" fill="none" xmlns="http://www.w3.org/2000/svg">
<path fill-rule="evenodd" clip-rule="evenodd" d="M21.3331 17.4536V9.12023L15.3807 3.16785H9.42832C8.79685 3.16785 8.19124 3.4187 7.74473 3.86521C7.29821 4.31173 7.04736 4.91733 7.04736 5.5488V17.4536C7.04736 18.085 7.29821 18.6906 7.74473 19.1371C8.19124 19.5837 8.79685 19.8345 9.42832 19.8345H18.9521C19.5836 19.8345 20.1892 19.5837 20.6357 19.1371C21.0822 18.6906 21.3331 18.085 21.3331 17.4536Z" stroke="#AAAAAA" stroke-width="1.5" stroke-linecap="round" stroke-linejoin="round"/>
<path d="M14.1903 7.92978V12.6917H17.7617M7.04746 5.54883C6.41599 5.54883 5.81038 5.79968 5.36387 6.24619C4.91735 6.69271 4.6665 7.29831 4.6665 7.92978V19.8345C4.6665 20.466 4.91735 21.0716 5.36387 21.5181C5.81038 21.9646 6.41599 22.2155 7.04746 22.2155H16.5713C17.2027 22.2155 17.8083 21.9646 18.2549 21.5181C18.7014 21.0716 18.9522 20.466 18.9522 19.8345" stroke="#AAAAAA" stroke-width="1.5" stroke-linecap="round" stroke-linejoin="round"/>
</svg>
