<svg width="26" height="25" viewBox="0 0 26 25" fill="none" xmlns="http://www.w3.org/2000/svg">
<path fill-rule="evenodd" clip-rule="evenodd" d="M21.3333 17.2618V8.92846L15.3809 2.97607H9.42856C8.79709 2.97607 8.19149 3.22692 7.74497 3.67344C7.29846 4.11995 7.04761 4.72556 7.04761 5.35703V17.2618C7.04761 17.8933 7.29846 18.4989 7.74497 18.9454C8.19149 19.3919 8.79709 19.6427 9.42856 19.6427H18.9524C19.5838 19.6427 20.1894 19.3919 20.636 18.9454C21.0825 18.4989 21.3333 17.8933 21.3333 17.2618Z" fill="#FF5733" stroke="#FF5733" stroke-width="1.5" stroke-linecap="round" stroke-linejoin="round"/>
<path fill-rule="evenodd" clip-rule="evenodd" d="M14.1906 7.73789V12.4998H17.762M7.0477 5.35693C6.41623 5.35693 5.81063 5.60778 5.36411 6.0543C4.9176 6.50081 4.66675 7.10642 4.66675 7.73789V19.6426C4.66675 20.2741 4.9176 20.8797 5.36411 21.3262C5.81063 21.7728 6.41623 22.0236 7.0477 22.0236H16.5715C17.203 22.0236 17.8086 21.7728 18.2551 21.3262C18.7016 20.8797 18.9525 20.2741 18.9525 19.6426" fill="#FF5733"/>
<path d="M14.1906 7.73789V12.4998H17.762M7.0477 5.35693C6.41623 5.35693 5.81063 5.60778 5.36411 6.0543C4.9176 6.50081 4.66675 7.10642 4.66675 7.73789V19.6426C4.66675 20.2741 4.9176 20.8797 5.36411 21.3262C5.81063 21.7727 6.41623 22.0236 7.0477 22.0236H16.5715C17.203 22.0236 17.8086 21.7727 18.2551 21.3262C18.7016 20.8797 18.9525 20.2741 18.9525 19.6426" stroke="#FF725E" stroke-width="1.5" stroke-linecap="round" stroke-linejoin="round"/>
</svg>
