<svg width="26" height="25" viewBox="0 0 26 25" fill="none" xmlns="http://www.w3.org/2000/svg">
<path d="M13.1667 11.3228C13.0625 11.3124 12.9375 11.3124 12.8229 11.3228C10.3438 11.2395 8.375 9.20825 8.375 6.70825C8.375 4.15617 10.4375 2.08325 13 2.08325C15.5521 2.08325 17.625 4.15617 17.625 6.70825C17.6146 9.20825 15.6458 11.2395 13.1667 11.3228Z" fill="#FF5733" stroke="#FF5733" stroke-width="1.5" stroke-linecap="round" stroke-linejoin="round"/>
<path d="M7.95825 15.1667C5.43742 16.8542 5.43742 19.6042 7.95825 21.2813C10.8228 23.198 15.5208 23.198 18.3853 21.2813C20.9062 19.5938 20.9062 16.8438 18.3853 15.1667C15.5312 13.2605 10.8333 13.2605 7.95825 15.1667Z" fill="#FF5733" stroke="#FF5733" stroke-width="1.5" stroke-linecap="round" stroke-linejoin="round"/>
</svg>
