<svg width="14" height="14" viewBox="0 0 14 14" fill="none" xmlns="http://www.w3.org/2000/svg">
<path d="M13.4185 5.13382L9.26153 4.54072L7.40326 0.842262C7.3525 0.741001 7.269 0.659027 7.16585 0.6092C6.90717 0.483829 6.59282 0.588305 6.46348 0.842262L4.60521 4.54072L0.448251 5.13382C0.333644 5.1499 0.228861 5.20294 0.148636 5.2833C0.0516486 5.38117 -0.0017959 5.51283 4.60817e-05 5.64936C0.00188807 5.78589 0.0588658 5.91611 0.158459 6.01142L3.16607 8.89014L2.45551 12.9551C2.43885 13.0496 2.44951 13.1469 2.48628 13.2358C2.52305 13.3247 2.58446 13.4017 2.66355 13.4581C2.74264 13.5145 2.83625 13.548 2.93375 13.5549C3.03125 13.5617 3.12875 13.5415 3.21519 13.4967L6.93337 11.5776L10.6515 13.4967C10.7531 13.5498 10.8709 13.5675 10.9839 13.5482C11.2688 13.5 11.4603 13.2347 11.4112 12.9551L10.7007 8.89014L13.7083 6.01142C13.7901 5.93266 13.8442 5.82979 13.8605 5.71728C13.9047 5.436 13.705 5.17561 13.4185 5.13382Z" fill="#FF7B5E"/>
</svg>
