<svg width="18" height="16" viewBox="0 0 18 16" fill="none" xmlns="http://www.w3.org/2000/svg">
<path d="M17.1145 6.11239C17.0042 5.77973 16.7014 5.54346 16.3431 5.512L11.477 5.08144L9.55276 0.692791C9.41088 0.371159 9.08776 0.162964 8.72875 0.162964C8.36973 0.162964 8.04661 0.371159 7.90473 0.693543L5.98052 5.08144L1.11358 5.512C0.755985 5.54421 0.453957 5.77973 0.342947 6.11239C0.231937 6.44505 0.334457 6.80993 0.604971 7.03993L4.28321 10.1833L3.19858 14.8389C3.11922 15.1812 3.25557 15.5351 3.54705 15.7404C3.70372 15.8507 3.88702 15.9069 4.07187 15.9069C4.23125 15.9069 4.38933 15.865 4.53122 15.7823L8.72875 13.3377L12.9247 15.7823C13.2318 15.9623 13.6188 15.9458 13.9097 15.7404C14.2013 15.5345 14.3375 15.1805 14.2581 14.8389L13.1735 10.1833L16.8517 7.04056C17.1223 6.80993 17.2256 6.44568 17.1145 6.11239Z" fill="#DEDEDE"/>
</svg>
