<svg width="18" height="16" viewBox="0 0 18 16" fill="none" xmlns="http://www.w3.org/2000/svg">
<path d="M17.0398 6.11239C16.9295 5.77973 16.6267 5.54346 16.2684 5.512L11.4023 5.08144L9.47806 0.692791C9.33618 0.371159 9.01305 0.162964 8.65404 0.162964C8.29503 0.162964 7.9719 0.371159 7.83002 0.693543L5.90581 5.08144L1.03888 5.512C0.681278 5.54421 0.37925 5.77973 0.26824 6.11239C0.15723 6.44505 0.25975 6.80993 0.530264 7.03993L4.20851 10.1833L3.12388 14.8389C3.04451 15.1812 3.18086 15.5351 3.47234 15.7404C3.62902 15.8507 3.81232 15.9069 3.99716 15.9069C4.15654 15.9069 4.31463 15.865 4.45651 15.7823L8.65404 13.3377L12.85 15.7823C13.1571 15.9623 13.5441 15.9458 13.835 15.7404C14.1266 15.5345 14.2628 15.1805 14.1834 14.8389L13.0988 10.1833L16.777 7.04056C17.0476 6.80993 17.1508 6.44568 17.0398 6.11239Z" fill="#FF5733"/>
</svg>
