<svg width="55" height="55" viewBox="0 0 55 55" fill="none" xmlns="http://www.w3.org/2000/svg">
<g filter="url(#filter0_dd_1750_6440)">
<circle cx="27.5" cy="23.5" r="18.5" fill="white"/>
<g clip-path="url(#clip0_1750_6440)">
<path d="M40.8015 23.759C40.8015 31.2211 34.7522 37.2705 27.29 37.2705C24.4439 37.2705 21.8031 36.3904 19.6253 34.8876L15.0069 36.0422L16.2171 31.5038C14.6804 29.3107 13.7786 26.6402 13.7786 23.759C13.7786 16.2968 19.8279 10.2475 27.29 10.2475C34.7522 10.2475 40.8015 16.2968 40.8015 23.759Z" fill="url(#paint0_linear_1750_6440)"/>
<path fill-rule="evenodd" clip-rule="evenodd" d="M27.2902 39.5223C35.9961 39.5223 43.0536 32.4648 43.0536 23.7589C43.0536 15.0531 35.9961 7.99554 27.2902 7.99554C18.5844 7.99554 11.5269 15.0531 11.5269 23.7589C11.5269 26.5861 12.2711 29.2394 13.5744 31.5337L11.5269 39.5223L19.7631 37.6125C21.9998 38.8303 24.5642 39.5223 27.2902 39.5223ZM27.2902 37.0972C34.6568 37.0972 40.6286 31.1255 40.6286 23.7589C40.6286 16.3924 34.6568 10.4207 27.2902 10.4207C19.9237 10.4207 13.952 16.3924 13.952 23.7589C13.952 26.6032 14.8422 29.2395 16.3593 31.4044L15.1646 35.8846L19.7237 34.7448C21.8737 36.2285 24.4805 37.0972 27.2902 37.0972Z" fill="white"/>
<path d="M23.3495 16.4403C22.9748 15.6875 22.3998 15.7541 21.819 15.7541C20.781 15.7541 19.1624 16.9975 19.1624 19.3116C19.1624 21.208 19.998 23.2841 22.814 26.3894C25.5316 29.3865 29.1025 30.9368 32.0669 30.8842C35.0313 30.8313 35.6412 28.2804 35.6412 27.4188C35.6412 27.037 35.4042 26.8465 35.2411 26.7947C34.2309 26.31 32.3676 25.4066 31.9437 25.2368C31.5198 25.0671 31.2984 25.2967 31.1608 25.4216C30.7764 25.788 30.0144 26.8676 29.7534 27.1105C29.4925 27.3534 29.1035 27.2304 28.9416 27.1387C28.3458 26.8996 26.7306 26.1811 25.4432 24.933C23.8509 23.3896 23.7574 22.8586 23.4575 22.3858C23.2175 22.0077 23.3936 21.7756 23.4815 21.6742C23.8245 21.2784 24.2982 20.6672 24.5107 20.3636C24.7231 20.0599 24.5545 19.5987 24.4533 19.3116C24.0181 18.0764 23.6493 17.0425 23.3495 16.4403Z" fill="white"/>
</g>
</g>
<defs>
<filter id="filter0_dd_1750_6440" x="0.542857" y="0.771429" width="53.9143" height="53.9143" filterUnits="userSpaceOnUse" color-interpolation-filters="sRGB">
<feFlood flood-opacity="0" result="BackgroundImageFix"/>
<feColorMatrix in="SourceAlpha" type="matrix" values="0 0 0 0 0 0 0 0 0 0 0 0 0 0 0 0 0 0 127 0" result="hardAlpha"/>
<feOffset dy="4.22857"/>
<feGaussianBlur stdDeviation="4.22857"/>
<feColorMatrix type="matrix" values="0 0 0 0 0 0 0 0 0 0 0 0 0 0 0 0 0 0 0.06 0"/>
<feBlend mode="normal" in2="BackgroundImageFix" result="effect1_dropShadow_1750_6440"/>
<feColorMatrix in="SourceAlpha" type="matrix" values="0 0 0 0 0 0 0 0 0 0 0 0 0 0 0 0 0 0 127 0" result="hardAlpha"/>
<feOffset/>
<feGaussianBlur stdDeviation="2.11429"/>
<feColorMatrix type="matrix" values="0 0 0 0 0 0 0 0 0 0 0 0 0 0 0 0 0 0 0.04 0"/>
<feBlend mode="normal" in2="effect1_dropShadow_1750_6440" result="effect2_dropShadow_1750_6440"/>
<feBlend mode="normal" in="SourceGraphic" in2="effect2_dropShadow_1750_6440" result="shape"/>
</filter>
<linearGradient id="paint0_linear_1750_6440" x1="39.1126" y1="13.6254" x2="13.7786" y2="37.2705" gradientUnits="userSpaceOnUse">
<stop stop-color="#FF886F"/>
<stop offset="1" stop-color="#FF5733"/>
</linearGradient>
<clipPath id="clip0_1750_6440">
<rect width="29" height="29" fill="white" transform="translate(13 10)"/>
</clipPath>
</defs>
</svg>
